<svg width="519" height="85" viewBox="0 0 519 85" fill="none" xmlns="http://www.w3.org/2000/svg">
<path d="M438.504 82.8961L470.485 2.28345H486.703L518.341 82.8961H499.382L475.168 15.9853H481.678L457.121 82.8961H438.504ZM456.664 68.2808V53.6654H500.638V68.2808H456.664Z" fill="#2ECC71"/>
<path d="M389.466 84.2664C383.451 84.2664 377.854 83.2007 372.676 81.0693C367.498 78.9379 362.968 75.9691 359.084 72.163C355.277 68.357 352.27 63.9419 350.061 58.9179C347.929 53.8178 346.863 48.337 346.863 42.4757C346.863 36.5382 347.929 31.0574 350.061 26.0334C352.193 21.0094 355.163 16.6324 358.97 12.9025C362.854 9.09639 367.346 6.16571 372.448 4.11043C377.626 1.97903 383.222 0.91333 389.238 0.91333C395.329 0.91333 400.926 1.97903 406.028 4.11043C411.205 6.16571 415.698 9.09639 419.505 12.9025C423.389 16.6324 426.396 21.0475 428.528 26.1476C430.66 31.1716 431.726 36.6524 431.726 42.5898C431.726 48.4512 430.66 53.9319 428.528 59.0321C426.396 64.0561 423.389 68.4711 419.505 72.2772C415.698 76.0072 411.244 78.9379 406.142 81.0693C401.04 83.2007 395.482 84.2664 389.466 84.2664ZM419.505 83.3529L387.753 51.6102L398.147 41.2197L438.62 82.8963L419.505 83.3529ZM389.238 67.9383C394.111 67.9383 398.337 66.8726 401.916 64.7412C405.495 62.6098 408.274 59.6411 410.254 55.835C412.31 51.9528 413.337 47.4997 413.337 42.4757C413.337 38.6696 412.766 35.2441 411.624 32.1993C410.482 29.0783 408.845 26.414 406.713 24.2065C404.581 21.9229 402.03 20.2101 399.06 19.0683C396.167 17.8504 392.893 17.2414 389.238 17.2414C384.441 17.2414 380.253 18.3071 376.674 20.4385C373.095 22.4938 370.278 25.4245 368.222 29.2305C366.242 32.9605 365.252 37.3755 365.252 42.4757C365.252 46.2817 365.823 49.7453 366.965 52.8663C368.108 55.9872 369.745 58.6895 371.877 60.9732C374.009 63.1807 376.522 64.8934 379.415 66.1114C382.385 67.3293 385.659 67.9383 389.238 67.9383Z" fill="#2ECC71"/>
<path d="M314.215 84.1525C308.2 84.1525 302.832 82.9346 298.111 80.4987C293.466 77.9867 289.811 74.5232 287.146 70.1081C284.481 65.6931 283.148 60.7071 283.148 55.1502C283.148 49.5934 284.443 44.6455 287.032 40.3065C289.697 35.8915 293.276 32.428 297.768 29.916C302.261 27.404 307.324 26.1479 312.959 26.1479C318.441 26.1479 323.277 27.3278 327.465 29.6876C331.653 32.0474 334.927 35.3206 337.287 39.5073C339.724 43.6939 340.942 48.4896 340.942 53.8942C340.942 54.8838 340.866 55.9495 340.714 57.0913C340.638 58.157 340.447 59.413 340.143 60.8593L292.286 60.9735V48.9844L332.719 48.8702L325.18 53.8942C325.104 50.6971 324.609 48.0709 323.695 46.0157C322.782 43.8843 321.411 42.2857 319.584 41.22C317.832 40.0782 315.662 39.5073 313.073 39.5073C310.332 39.5073 307.934 40.1543 305.878 41.4484C303.898 42.6663 302.337 44.4171 301.195 46.7008C300.129 48.9844 299.596 51.7628 299.596 55.0361C299.596 58.3093 300.167 61.1258 301.309 63.4855C302.527 65.7692 304.202 67.558 306.334 68.8521C308.543 70.07 311.132 70.679 314.101 70.679C316.842 70.679 319.317 70.2223 321.525 69.3088C323.733 68.3193 325.675 66.8729 327.35 64.9699L336.945 74.5612C334.203 77.7583 330.891 80.1561 327.008 81.7547C323.124 83.3532 318.86 84.1525 314.215 84.1525Z" fill="black"/>
<path d="M257.021 82.8967V27.4041H274.496V82.8967H257.021ZM265.816 19.7539C263.075 19.7539 260.79 18.8404 258.963 17.0135C257.212 15.1105 256.336 12.8268 256.336 10.1626C256.336 7.42222 257.212 5.13857 258.963 3.31166C260.79 1.48475 263.075 0.571289 265.816 0.571289C268.557 0.571289 270.803 1.48475 272.555 3.31166C274.306 5.13857 275.182 7.42222 275.182 10.1626C275.182 12.8268 274.306 15.1105 272.555 17.0135C270.803 18.8404 268.557 19.7539 265.816 19.7539Z" fill="black"/>
<path d="M228.324 82.8963V51.2678C228.324 48.3752 227.41 46.0535 225.583 44.3027C223.831 42.4758 221.585 41.5623 218.844 41.5623C216.94 41.5623 215.265 41.981 213.818 42.8183C212.371 43.5796 211.229 44.7214 210.392 46.2438C209.554 47.6901 209.135 49.3648 209.135 51.2678L202.397 47.9565C202.397 43.6176 203.31 39.8115 205.138 36.5383C206.965 33.2651 209.516 30.7531 212.79 29.0023C216.065 27.1754 219.834 26.2619 224.098 26.2619C228.438 26.2619 232.245 27.1754 235.519 29.0023C238.794 30.7531 241.306 33.227 243.058 36.4241C244.885 39.5451 245.799 43.1989 245.799 47.3856V82.8963H228.324ZM191.66 82.8963V0H209.135V82.8963H191.66Z" fill="black"/>
<path d="M161.838 84.1525C156.127 84.1525 150.949 82.8965 146.304 80.3845C141.659 77.8725 138.004 74.409 135.339 69.9939C132.674 65.5789 131.342 60.631 131.342 55.1502C131.342 49.5934 132.674 44.6455 135.339 40.3065C138.081 35.8915 141.774 32.428 146.418 29.916C151.063 27.404 156.279 26.1479 162.066 26.1479C166.406 26.1479 170.366 26.9092 173.945 28.4316C177.6 29.8779 180.836 32.0854 183.653 35.0542L172.46 46.244C171.165 44.7977 169.643 43.732 167.891 43.0469C166.216 42.3618 164.274 42.0193 162.066 42.0193C159.553 42.0193 157.307 42.5902 155.327 43.732C153.424 44.7977 151.901 46.3201 150.759 48.2993C149.693 50.2023 149.16 52.4479 149.16 55.0361C149.16 57.6242 149.693 59.9078 150.759 61.887C151.901 63.8661 153.462 65.4266 155.442 66.5685C157.421 67.7103 159.63 68.2812 162.066 68.2812C164.35 68.2812 166.368 67.9006 168.12 67.1394C169.947 66.302 171.508 65.1602 172.803 63.7139L183.882 74.9038C180.988 77.9486 177.714 80.2703 174.059 81.8689C170.404 83.3913 166.33 84.1525 161.838 84.1525Z" fill="black"/>
<path d="M25.209 0.114258H43.6319V73.2963C43.6319 78.3836 39.5078 82.5077 34.4205 82.5077C29.3331 82.5077 25.209 78.3836 25.209 73.2963V0.114258Z" fill="#2ECC71"/>
<path d="M8.23935 16.593C3.68888 16.593 -1.61295e-07 12.9041 -3.60263e-07 8.35367C-5.5923e-07 3.80321 3.68888 0.114326 8.23935 0.114326L43.6333 0.114325L43.6333 16.593L8.23935 16.593Z" fill="#2ECC71"/>
<path d="M60.6044 16.593C65.1549 16.593 68.8438 12.9041 68.8438 8.35367C68.8438 3.8032 65.1549 0.114324 60.6044 0.114324L48.4815 0.114324L48.4815 16.593L60.6044 16.593Z" fill="black"/>
<path d="M99.8365 84.1525C93.8211 84.1525 88.4529 82.9346 83.7319 80.4987C79.0871 77.9867 75.4322 74.5232 72.7671 70.1081C70.1021 65.6931 68.7695 60.7071 68.7695 55.1502C68.7695 49.5934 70.064 44.6455 72.6529 40.3065C75.318 35.8915 78.8968 32.428 83.3893 29.916C87.8818 27.404 92.9454 26.1479 98.5801 26.1479C104.063 26.1479 108.898 27.3278 113.086 29.6876C117.274 32.0474 120.548 35.3206 122.908 39.5073C125.345 43.6939 126.563 48.4896 126.563 53.8942C126.563 54.8838 126.487 55.9495 126.335 57.0913C126.259 58.157 126.068 59.413 125.764 60.8593L77.9069 60.9735V48.9844L118.34 48.8702L110.801 53.8942C110.725 50.6971 110.23 48.0709 109.317 46.0157C108.403 43.8843 107.032 42.2857 105.205 41.22C103.453 40.0782 101.283 39.5073 98.6944 39.5073C95.9531 39.5073 93.5546 40.1543 91.4987 41.4484C89.5189 42.6663 87.958 44.4171 86.8158 46.7008C85.7498 48.9844 85.2168 51.7628 85.2168 55.0361C85.2168 58.3093 85.7878 61.1258 86.93 63.4855C88.1483 65.7692 89.8235 67.558 91.9556 68.8521C94.1637 70.07 96.7527 70.679 99.7223 70.679C102.464 70.679 104.938 70.2223 107.146 69.3088C109.355 68.3193 111.296 66.8729 112.971 64.9699L122.566 74.5612C119.824 77.7583 116.512 80.1561 112.629 81.7547C108.745 83.3532 104.481 84.1525 99.8365 84.1525Z" fill="black"/>
</svg>
